<?xml version="1.0" encoding="utf-8"?>
<!-- Generator: Adobe Illustrator 27.2.0, SVG Export Plug-In . SVG Version: 6.00 Build 0)  -->
<svg version="1.1" xmlns="http://www.w3.org/2000/svg" xmlns:xlink="http://www.w3.org/1999/xlink" x="0px" y="0px"
	 viewBox="0 0 298 298" style="enable-background:new 0 0 298 298;" xml:space="preserve">
<style type="text/css">
	.st0{fill:#094ACF;stroke:#000000;stroke-miterlimit:10;}
	.st1{clip-path:url(#SVGID_00000075857425567273388320000007812496934486625414_);}
	.st2{clip-path:url(#SVGID_00000016797912616452517650000011220601269730704790_);}
	.st3{clip-path:url(#SVGID_00000102503014558419293710000016744411580744072127_);}
	.st4{clip-path:url(#SVGID_00000091006014704042892110000017624740873958264745_);}
	.st5{clip-path:url(#SVGID_00000096760651179023619590000008170278704895405225_);}
	.st6{fill:url(#SVGID_00000165196090135597072680000006670982128045035936_);}
	.st7{fill:url(#SVGID_00000038384863492659812860000018179381031318862751_);}
	.st8{fill:url(#SVGID_00000057857959080627926880000007523828989714606513_);}
	.st9{fill:url(#SVGID_00000090295097662500357830000012621553963323371658_);}
	.st10{fill:url(#SVGID_00000002383790189848068890000015145133961054098588_);}
	.st11{fill:url(#SVGID_00000127738155135899699280000006583046030861770156_);}
	.st12{fill:url(#SVGID_00000003073103418733626000000001460917841846950548_);}
	.st13{fill:url(#SVGID_00000125561925068435085370000017583523793003684238_);}
	.st14{fill:url(#SVGID_00000053514443057424833180000000109402577803386539_);}
	.st15{fill:url(#SVGID_00000088816035561428632040000000372663214551122563_);}
	.st16{fill:url(#SVGID_00000049181107358081679600000014047346183255755648_);}
	.st17{fill:url(#SVGID_00000176030669916974472050000004433729034879875475_);}
	.st18{fill:url(#SVGID_00000055694836700640269040000015455495678286337952_);}
	.st19{fill:#FFFFFF;}
	.st20{fill:#333333;}
	.st21{fill:url(#SVGID_00000155108796178535207950000011172477024272822681_);}
	.st22{fill:url(#SVGID_00000083079022213443692090000006369378483467362193_);}
	.st23{fill:url(#SVGID_00000071534284712039394170000010709839585803668129_);}
	.st24{fill:url(#SVGID_00000101792291418975464630000002716121333202683522_);}
	.st25{fill:url(#SVGID_00000045587229583593251320000006504314010478055823_);}
	.st26{fill:url(#SVGID_00000057869654728730694620000004399438837635915148_);}
	.st27{fill:url(#SVGID_00000176737955490397168910000013108547143991595453_);}
	.st28{fill:url(#SVGID_00000127035646908388026120000016260587779804016564_);}
	.st29{fill:url(#SVGID_00000017479819794877259040000006627326964505699254_);}
	.st30{fill:url(#SVGID_00000080894296247919204960000017013415720239299007_);}
	.st31{fill:url(#SVGID_00000176003880107986827200000007353016128142739858_);}
	.st32{fill:url(#SVGID_00000181061417969942754090000015461029362683817110_);}
	.st33{fill:url(#SVGID_00000111165646404522401790000011408144422754194820_);}
	.st34{fill:url(#SVGID_00000143589554806406849810000017156430158291987082_);}
	.st35{clip-path:url(#SVGID_00000173145848349666128160000009873292179837636229_);}
	.st36{clip-path:url(#SVGID_00000131352847771986869350000017870451851185125049_);}
	.st37{clip-path:url(#SVGID_00000016055901437961464410000016891406103473765556_);}
	.st38{clip-path:url(#SVGID_00000085240676867815451080000017646427785698363573_);}
	.st39{clip-path:url(#SVGID_00000069394025316310760090000009497408884578455204_);}
	.st40{clip-path:url(#SVGID_00000183247279993727636780000004779214942547164069_);}
	
		.st41{clip-path:url(#SVGID_00000018198599631734148390000012470186947180987837_);fill:#094ACF;stroke:#000000;stroke-miterlimit:10;}
	.st42{fill:#153AAE;}
	.st43{fill:url(#SVGID_00000003795254951926525750000009847349391838028938_);}
	.st44{fill:url(#SVGID_00000109735774009403738680000012398055115925886136_);}
	.st45{fill:url(#SVGID_00000017514628846044529330000014703751812930669230_);}
	.st46{fill:url(#SVGID_00000111910795551805272270000008735963389869557654_);}
	.st47{fill:url(#SVGID_00000114772726392241380800000009135663772191853974_);}
	.st48{fill:url(#SVGID_00000090978783293923899760000015862926233444187011_);}
</style>
<g id="bg">
</g>
<g id="logo">
	<g>
		<g>
			<g>
				<g>
					<g>
						<g>
							<path class="st19" d="M64.07,125.44L51.7,234.98c-0.69,6.14,3.82,11.25,10.05,11.25H92.2l11.92-116.79L64.07,125.44z"/>
							<polygon class="st19" points="113.5,113.08 100.86,246.22 197.42,246.22 185.5,118.08 							"/>
							<path class="st19" d="M246.31,235.69l-11.79-98.59l-39.71-4l11.28,113.12h30.11C242.42,246.22,246.97,241.44,246.31,235.69z"
								/>
						</g>
					</g>
				</g>
			</g>
		</g>
		<g>
			<g>
				<path class="st19" d="M207.62,68.39c-0.49-0.28-1.05-0.42-1.66-0.42h-4.67v6.9h4.67c0.62,0,1.17-0.15,1.66-0.44
					c0.49-0.29,0.89-0.71,1.2-1.24c0.31-0.53,0.46-1.14,0.46-1.81c0-0.7-0.15-1.3-0.46-1.81C208.51,69.07,208.11,68.68,207.62,68.39
					z"/>
				<path class="st19" d="M203.09,51.78c-13.33,0-24.13,10.81-24.13,24.13c0,13.33,10.8,24.13,24.13,24.13
					c13.33,0,24.13-10.8,24.13-24.13C227.22,62.58,216.42,51.78,203.09,51.78z M215.34,76.35c-0.84,1.51-1.99,2.71-3.45,3.58
					c-1.46,0.87-3.11,1.3-4.97,1.3h-5.56v9.85h-7.2V61.62h12.75c1.85,0,3.51,0.42,4.97,1.26c1.46,0.84,2.61,1.99,3.45,3.43
					c0.84,1.45,1.26,3.09,1.26,4.95C216.6,73.14,216.18,74.84,215.34,76.35z"/>
				<path class="st19" d="M94.91,51.78c-13.33,0-24.13,10.8-24.13,24.13c0,13.33,10.81,24.13,24.13,24.13
					c13.33,0,24.13-10.8,24.13-24.13C119.04,62.58,108.24,51.78,94.91,51.78z M107.05,67.97h-8.97v23.11h-7.2V67.97h-8.67v-6.36
					h24.83V67.97z"/>
				<path class="st19" d="M149,51.78c-13.33,0-24.13,10.8-24.13,24.13c0,13.33,10.8,24.13,24.13,24.13
					c13.33,0,24.13-10.8,24.13-24.13C173.13,62.58,162.33,51.78,149,51.78z M157.52,67.68h-4.97v17.34h4.97v6.06h-17.13v-6.06h4.97
					V67.68h-4.97v-6.06h17.13V67.68z"/>
			</g>
		</g>
	</g>
</g>
</svg>
