<?xml version="1.0" encoding="utf-8"?>
<!-- Generator: Adobe Illustrator 27.2.0, SVG Export Plug-In . SVG Version: 6.00 Build 0)  -->
<svg version="1.1" xmlns="http://www.w3.org/2000/svg" xmlns:xlink="http://www.w3.org/1999/xlink" x="0px" y="0px"
	 viewBox="0 0 298 298" style="enable-background:new 0 0 298 298;" xml:space="preserve">
<style type="text/css">
	.st0{fill:#094ACF;stroke:#000000;stroke-miterlimit:10;}
	.st1{clip-path:url(#SVGID_00000164512210516098496440000017074489995610317455_);}
	.st2{clip-path:url(#SVGID_00000114048098618902861660000011586177794079904138_);}
	.st3{clip-path:url(#SVGID_00000054985880195365836660000013740540403279225001_);}
	.st4{clip-path:url(#SVGID_00000027568462725041024990000002560587772473317801_);}
	.st5{clip-path:url(#SVGID_00000060031274156257929280000016200973491865495977_);}
	.st6{fill:url(#SVGID_00000183943105697663656480000006768827410871855004_);}
	.st7{fill:url(#SVGID_00000013892371970570142260000010441865448153764015_);}
	.st8{fill:url(#SVGID_00000095311229988585690620000010230114977083223963_);}
	.st9{fill:url(#SVGID_00000142153547656003873090000005112060757934063236_);}
	.st10{fill:url(#SVGID_00000149364329703160352950000007254355718263101341_);}
	.st11{fill:url(#SVGID_00000005951303192774459050000017953219080734111113_);}
	.st12{fill:url(#SVGID_00000042731884326842364620000013705577742825299118_);}
	.st13{fill:url(#SVGID_00000158738529577483919730000002734506152515373972_);}
	.st14{fill:url(#SVGID_00000052098958798534716060000003144557209078488243_);}
	.st15{fill:url(#SVGID_00000157274374238983996440000004526866846374279865_);}
	.st16{fill:url(#SVGID_00000164510300942964475910000014603056579513733012_);}
	.st17{fill:url(#SVGID_00000124851759098423589440000006988528958682257086_);}
	.st18{fill:url(#SVGID_00000150072803459705443480000004973937349806914218_);}
	.st19{fill:#FFFFFF;}
	.st20{fill:#333333;}
	.st21{fill:url(#SVGID_00000017499788152983832030000013214735260393985717_);}
	.st22{fill:url(#SVGID_00000124861297759155904610000006251994643480414608_);}
	.st23{fill:url(#SVGID_00000095339164553440464030000015406123926824491936_);}
	.st24{fill:url(#SVGID_00000049189636890915774330000002985642007043053743_);}
	.st25{fill:url(#SVGID_00000130639682893644561490000011888412512409909422_);}
	.st26{fill:url(#SVGID_00000153677405721153471050000000991945550610577085_);}
	.st27{fill:url(#SVGID_00000119819931928706775540000012514099756136786334_);}
	.st28{fill:url(#SVGID_00000121981703017510009560000005237372394257352327_);}
	.st29{fill:url(#SVGID_00000103987967828443393140000014909732203295079316_);}
	.st30{fill:url(#SVGID_00000007394974441583897260000013693868256754334121_);}
	.st31{fill:url(#SVGID_00000129181909746292910660000000089048147744898992_);}
	.st32{fill:url(#SVGID_00000101087290536346151140000002176632935012023460_);}
	.st33{fill:url(#SVGID_00000041262153252072344630000001992994618233687483_);}
	.st34{fill:url(#SVGID_00000175281405493952647450000005177520518905810310_);}
	.st35{clip-path:url(#SVGID_00000011024039514814313750000008622706715766068627_);}
	.st36{clip-path:url(#SVGID_00000020376695020477969330000013801606121228424886_);}
	.st37{clip-path:url(#SVGID_00000088839951978385885100000008389169697463965872_);}
	.st38{clip-path:url(#SVGID_00000091715944604741414920000012864526522136200108_);}
	.st39{clip-path:url(#SVGID_00000086685559124302810560000007769794219141421230_);}
	.st40{clip-path:url(#SVGID_00000116206663243310711530000005817152676286970252_);}
	
		.st41{clip-path:url(#SVGID_00000142164960779698563960000000988718715625237424_);fill:#094ACF;stroke:#000000;stroke-miterlimit:10;}
	.st42{fill:#153AAE;}
	.st43{fill:url(#SVGID_00000080907850870396043710000003345225959271739290_);}
	.st44{fill:url(#SVGID_00000055705282405643011210000002985544753905424531_);}
	.st45{fill:url(#SVGID_00000067936453131021588730000015646402215859330198_);}
	.st46{fill:url(#SVGID_00000055708265509950612430000005041041724787943842_);}
	.st47{fill:url(#SVGID_00000128445101774631337190000007885862798514980270_);}
	.st48{fill:url(#SVGID_00000178199273482197245050000008231501560674456993_);}
</style>
<g id="bg">
</g>
<g id="logo">
	<g>
		<defs>
			<path id="SVGID_00000060713728527338524180000006375103159480059046_" d="M64.07,125.44L51.7,234.98
				c-0.69,6.14,3.82,11.25,10.05,11.25H92.2l11.92-116.79L64.07,125.44z"/>
		</defs>
		<defs>
			<polygon id="SVGID_00000064321809387027681240000016599661681885372090_" points="113.5,113.08 100.86,246.22 197.42,246.22 
				185.5,118.08 			"/>
		</defs>
		<defs>
			<path id="SVGID_00000034797255877445087310000018405693560799493038_" d="M246.31,235.69l-11.79-98.59l-39.71-4l11.28,113.12
				h30.11C242.42,246.22,246.97,241.44,246.31,235.69z"/>
		</defs>
		<defs>
			<path id="SVGID_00000125583818325552021570000011872579018224005528_" d="M207.62,68.39c-0.49-0.28-1.05-0.42-1.66-0.42h-4.67
				v6.9h4.67c0.62,0,1.17-0.15,1.66-0.44c0.49-0.29,0.89-0.71,1.2-1.24c0.31-0.53,0.46-1.14,0.46-1.81c0-0.7-0.15-1.3-0.46-1.81
				C208.51,69.07,208.11,68.68,207.62,68.39z"/>
		</defs>
		<defs>
			<path id="SVGID_00000162333327810514363820000009790117031418016687_" d="M203.09,51.78c-13.33,0-24.13,10.81-24.13,24.13
				c0,13.33,10.8,24.13,24.13,24.13c13.33,0,24.13-10.8,24.13-24.13C227.22,62.58,216.42,51.78,203.09,51.78z M215.34,76.35
				c-0.84,1.51-1.99,2.71-3.45,3.58c-1.46,0.87-3.11,1.3-4.97,1.3h-5.56v9.85h-7.2V61.62h12.75c1.85,0,3.51,0.42,4.97,1.26
				c1.46,0.84,2.61,1.99,3.45,3.43c0.84,1.45,1.26,3.09,1.26,4.95C216.6,73.14,216.18,74.84,215.34,76.35z"/>
		</defs>
		<defs>
			<path id="SVGID_00000067237104859760066620000007420275343801054604_" d="M94.91,51.78c-13.33,0-24.13,10.8-24.13,24.13
				c0,13.33,10.81,24.13,24.13,24.13c13.33,0,24.13-10.8,24.13-24.13C119.04,62.58,108.24,51.78,94.91,51.78z M107.05,67.97h-8.97
				v23.11h-7.2V67.97h-8.67v-6.36h24.83V67.97z"/>
		</defs>
		<defs>
			<path id="SVGID_00000157299237892855205330000011521333940368629690_" d="M149,51.78c-13.33,0-24.13,10.8-24.13,24.13
				c0,13.33,10.8,24.13,24.13,24.13c13.33,0,24.13-10.8,24.13-24.13C173.13,62.58,162.33,51.78,149,51.78z M157.52,67.68h-4.97
				v17.34h4.97v6.06h-17.13v-6.06h4.97V67.68h-4.97v-6.06h17.13V67.68z"/>
		</defs>
		<clipPath id="SVGID_00000122690632487167112880000003652261944152029315_">
			<use xlink:href="#SVGID_00000060713728527338524180000006375103159480059046_"  style="overflow:visible;"/>
		</clipPath>
		
			<clipPath id="SVGID_00000043432328957585827200000013980958460488307134_" style="clip-path:url(#SVGID_00000122690632487167112880000003652261944152029315_);">
			<use xlink:href="#SVGID_00000064321809387027681240000016599661681885372090_"  style="overflow:visible;"/>
		</clipPath>
		
			<clipPath id="SVGID_00000022552272235250491500000017610697089237889436_" style="clip-path:url(#SVGID_00000043432328957585827200000013980958460488307134_);">
			<use xlink:href="#SVGID_00000034797255877445087310000018405693560799493038_"  style="overflow:visible;"/>
		</clipPath>
		
			<clipPath id="SVGID_00000179616044895848747930000007830488150800292267_" style="clip-path:url(#SVGID_00000022552272235250491500000017610697089237889436_);">
			<use xlink:href="#SVGID_00000125583818325552021570000011872579018224005528_"  style="overflow:visible;"/>
		</clipPath>
		
			<clipPath id="SVGID_00000086675596942260885190000002231281723084626057_" style="clip-path:url(#SVGID_00000179616044895848747930000007830488150800292267_);">
			<use xlink:href="#SVGID_00000162333327810514363820000009790117031418016687_"  style="overflow:visible;"/>
		</clipPath>
		
			<clipPath id="SVGID_00000139976443298484294630000005360295785461218691_" style="clip-path:url(#SVGID_00000086675596942260885190000002231281723084626057_);">
			<use xlink:href="#SVGID_00000067237104859760066620000007420275343801054604_"  style="overflow:visible;"/>
		</clipPath>
		
			<clipPath id="SVGID_00000021829317767008928670000009315403626735230142_" style="clip-path:url(#SVGID_00000139976443298484294630000005360295785461218691_);">
			<use xlink:href="#SVGID_00000157299237892855205330000011521333940368629690_"  style="overflow:visible;"/>
		</clipPath>
		
			<rect x="-0.27" y="-0.33" style="clip-path:url(#SVGID_00000021829317767008928670000009315403626735230142_);fill:#094ACF;stroke:#000000;stroke-miterlimit:10;" width="297.97" height="298.5"/>
	</g>
	<g>
		<g>
			<g>
				<g>
					<g>
						<g>
							<path class="st42" d="M64.07,125.44L51.7,234.98c-0.69,6.14,3.82,11.25,10.05,11.25H92.2l11.92-116.79L64.07,125.44z"/>
							<polygon class="st42" points="113.5,113.08 100.86,246.22 197.42,246.22 185.5,118.08 							"/>
							<path class="st42" d="M246.31,235.69l-11.79-98.59l-39.71-4l11.28,113.12h30.11C242.42,246.22,246.97,241.44,246.31,235.69z"
								/>
						</g>
					</g>
				</g>
			</g>
		</g>
		<g>
			<g>
				<path class="st42" d="M207.62,68.39c-0.49-0.28-1.05-0.42-1.66-0.42h-4.67v6.9h4.67c0.62,0,1.17-0.15,1.66-0.44
					c0.49-0.29,0.89-0.71,1.2-1.24c0.31-0.53,0.46-1.14,0.46-1.81c0-0.7-0.15-1.3-0.46-1.81C208.51,69.07,208.11,68.68,207.62,68.39
					z"/>
				<path class="st42" d="M203.09,51.78c-13.33,0-24.13,10.81-24.13,24.13c0,13.33,10.8,24.13,24.13,24.13
					c13.33,0,24.13-10.8,24.13-24.13C227.22,62.58,216.42,51.78,203.09,51.78z M215.34,76.35c-0.84,1.51-1.99,2.71-3.45,3.58
					c-1.46,0.87-3.11,1.3-4.97,1.3h-5.56v9.85h-7.2V61.62h12.75c1.85,0,3.51,0.42,4.97,1.26c1.46,0.84,2.61,1.99,3.45,3.43
					c0.84,1.45,1.26,3.09,1.26,4.95C216.6,73.14,216.18,74.84,215.34,76.35z"/>
				<path class="st42" d="M94.91,51.78c-13.33,0-24.13,10.8-24.13,24.13c0,13.33,10.81,24.13,24.13,24.13
					c13.33,0,24.13-10.8,24.13-24.13C119.04,62.58,108.24,51.78,94.91,51.78z M107.05,67.97h-8.97v23.11h-7.2V67.97h-8.67v-6.36
					h24.83V67.97z"/>
				<path class="st42" d="M149,51.78c-13.33,0-24.13,10.8-24.13,24.13c0,13.33,10.8,24.13,24.13,24.13
					c13.33,0,24.13-10.8,24.13-24.13C173.13,62.58,162.33,51.78,149,51.78z M157.52,67.68h-4.97v17.34h4.97v6.06h-17.13v-6.06h4.97
					V67.68h-4.97v-6.06h17.13V67.68z"/>
			</g>
		</g>
	</g>
</g>
</svg>
